HIERARCHY
ROOT Hips
{
	OFFSET 0.000000 0.000000 0.000000 
	CHANNELS 6 Xposition Yposition Zposition Zrotation Yrotation Xrotation
	JOINT LeftUpLeg
	{
		OFFSET 1.363060 -1.794630 0.839290 
		CHANNELS 3 Zrotation Yrotation Xrotation
		JOINT LeftLeg
		{
			OFFSET 2.448110 -6.726130 0.000000 
			CHANNELS 3 Zrotation Yrotation Xrotation
			JOINT LeftFoot
			{
				OFFSET 2.562200 -7.039590 0.000000 
				CHANNELS 3 Zrotation Yrotation Xrotation
				JOINT LeftToeBase
				{
					OFFSET 0.157640 -0.433110 2.322550 
					CHANNELS 3 Zrotation Yrotation Xrotation
					End Site
					{
						OFFSET 0.000000 0.000000 0.000000 
					}
				}
			}
		}
	}
	JOINT RightUpLeg
	{
		OFFSET -1.305520 -1.794630 0.839290 
		CHANNELS 3 Zrotation Yrotation Xrotation
		JOINT RightLeg
		{
			OFFSET -2.542530 -6.985550 0.000000 
			CHANNELS 3 Zrotation Yrotation Xrotation
			JOINT RightFoot
			{
				OFFSET -2.568260 -7.056230 0.000000 
				CHANNELS 3 Zrotation Yrotation Xrotation
				JOINT RightToeBase
				{
					OFFSET -0.164730 -0.452590 2.363150 
					CHANNELS 3 Zrotation Yrotation Xrotation
					End Site
					{
						OFFSET 0.000000 0.000000 0.000000 
					}
				}
			}
		}
	}
	JOINT Spine
	{
		OFFSET 0.028270 2.035590 -0.193380 
		CHANNELS 3 Zrotation Yrotation Xrotation
		JOINT Spine1
		{
			OFFSET 0.056720 2.048850 -0.042750 
			CHANNELS 3 Zrotation Yrotation Xrotation
			JOINT Neck1
			{
				OFFSET -0.054170 1.746240 0.172020 
				CHANNELS 3 Zrotation Yrotation Xrotation
				JOINT Head
				{
					OFFSET 0.104070 1.761360 -0.123970 
					CHANNELS 3 Zrotation Yrotation Xrotation
					End Site
					{
						OFFSET 0.000000 0.000000 0.000000 
					}
				}
			}
			JOINT LeftArm
			{
				OFFSET 3.362410 1.200890 -0.311210 
				CHANNELS 3 Zrotation Yrotation Xrotation
				JOINT LeftForeArm
				{
					OFFSET 4.983000 -0.000000 -0.000000 
					CHANNELS 3 Zrotation Yrotation Xrotation
					JOINT LeftHand
					{
						OFFSET 3.483560 -0.000000 -0.000000 
						CHANNELS 3 Zrotation Yrotation Xrotation
						JOINT LeftHandIndex1
						{
							OFFSET 0.715260 -0.000000 -0.000000 
							CHANNELS 3 Zrotation Yrotation Xrotation
							End Site
							{
								OFFSET 0.000000 0.000000 0.000000 
							}
						}
					}
				}
			}
			JOINT RightArm
			{
				OFFSET -3.136600 1.374050 -0.404650 
				CHANNELS 3 Zrotation Yrotation Xrotation
				JOINT RightForeArm
				{
					OFFSET -5.241900 -0.000000 -0.000000 
					CHANNELS 3 Zrotation Yrotation Xrotation
					JOINT RightHand
					{
						OFFSET -3.444170 -0.000000 -0.000000 
						CHANNELS 3 Zrotation Yrotation Xrotation
						JOINT RightHandIndex1
						{
							OFFSET -0.622530 -0.000000 -0.000000 
							CHANNELS 3 Zrotation Yrotation Xrotation
							End Site
							{
								OFFSET 0.000000 0.000000 0.000000 
							}
						}
					}
				}
			}
		}
	}
}
MOTION
Frames: 18
Frame Time: 0.041667
-26.359942 17.509102 -0.197627 -156.267985 70.363323 -140.846743 -2.786190 -12.436081 -20.196483 0.653041 8.972827 22.788543 -2.922475 16.063670 -14.246069 0.206600 -2.926700 -8.074700 29.285801 -5.447965 -3.253146 0.073095 -1.716428 -0.192506 3.960011 -34.927460 -27.363007 -0.036200 -1.228700 3.378200 -0.044625 5.323015 -1.638585 -4.491765 3.068831 9.451785 -2.430593 22.619892 10.457751 -4.610600 11.904700 10.346000 -78.549680 -5.060083 36.834582 6.932254 -20.526627 -1.748985 -0.387373 -0.434902 -0.809507 -7.125000 0.000000 0.000000 69.734797 -10.640008 19.241103 -18.317897 32.049546 -6.662674 1.169893 0.474849 -11.496771 7.125000 0.000000 0.000000 
-26.359942 17.508786 -0.194893 -155.949928 70.509172 -140.597813 -2.842140 -12.030055 -20.270761 0.671579 8.975795 22.861417 -2.855248 15.759470 -14.094011 0.187300 -2.787400 -7.687500 29.263231 -5.295145 -3.172460 0.069367 -1.713972 -0.190985 3.907082 -34.789871 -27.527620 -0.046200 -1.387400 3.815300 -0.094654 5.363641 -1.683128 -4.859867 3.090323 9.207214 -2.352473 22.773021 10.678782 -4.495000 11.959700 10.556400 -78.362024 -4.854782 37.132737 6.977552 -20.556817 -1.746368 -0.405536 -0.382955 -0.448439 -7.125000 0.000000 0.000000 69.907434 -10.560008 19.341173 -18.271398 31.991108 -6.617040 1.173041 0.456046 -11.408560 7.125000 0.000000 0.000000 
-26.357313 17.508891 -0.191948 -156.348891 70.585296 -141.047340 -3.031433 -11.863396 -20.263817 0.663605 8.960782 22.819532 -2.820569 15.613081 -14.022501 0.166100 -2.625300 -7.237200 29.092215 -5.368039 -3.082251 0.065042 -1.702710 -0.192383 3.843361 -34.621353 -27.701741 -0.062200 -1.609400 4.427400 -0.186833 5.422554 -1.707116 -5.282432 3.116990 9.028950 -2.248211 22.838591 10.735793 -4.394200 11.971000 10.660200 -77.994304 -4.750477 37.799439 7.057895 -20.631330 -1.754179 -0.435680 -0.376017 -0.310809 -7.125000 0.000000 0.000000 70.283748 -10.449055 19.170720 -18.247452 31.955908 -6.595555 1.181422 0.431453 -11.246764 7.125000 0.000000 0.000000 
-26.348267 17.509628 -0.187741 -156.759514 70.772062 -141.498298 -3.295401 -11.649638 -20.185413 0.650822 8.937844 22.760873 -2.799507 15.559548 -14.170230 0.156800 -2.551400 -7.032200 28.879593 -5.355631 -2.957653 0.063536 -1.690998 -0.191534 3.864399 -34.677474 -27.648595 -0.052100 -1.473200 4.051900 -0.295402 5.547927 -1.726654 -5.663355 3.172378 8.870987 -2.122275 22.826394 10.678757 -4.312900 11.953300 10.645800 -77.548109 -4.664872 38.359020 7.105977 -20.669376 -1.757878 -0.465779 -0.390557 -0.238981 -7.125000 0.000000 0.000000 70.703800 -10.462692 19.019627 -18.297797 32.007226 -6.617597 1.190739 0.412079 -11.217311 7.125000 0.000000 0.000000 
-26.343534 17.511836 -0.184901 -157.083597 71.006924 -141.750049 -3.465097 -11.660275 -20.140841 0.628996 8.907610 22.646498 -2.833986 15.714872 -14.244797 0.162000 -2.592900 -7.147300 28.676936 -5.211522 -2.978253 0.058644 -1.683053 -0.190383 3.896511 -34.770717 -27.566597 -0.041100 -1.307700 3.595900 -0.402821 5.687760 -1.769261 -6.045696 3.234372 8.677083 -2.013515 22.774346 10.678574 -4.235200 11.916000 10.658600 -77.150733 -4.615948 38.608207 7.182426 -20.743400 -1.775672 -0.473088 -0.405639 -0.557839 -7.125000 0.000000 0.000000 71.063685 -10.495747 18.935643 -18.343876 32.061202 -6.643600 1.198585 0.405990 -11.262006 7.125000 0.000000 0.000000 
-26.335225 17.513835 -0.181114 -158.017072 71.192110 -142.610951 -3.774857 -11.658856 -20.136378 0.599676 8.873657 22.498210 -2.844131 15.748020 -14.132888 0.148000 -2.479200 -6.831900 28.327048 -5.253298 -2.973240 0.047426 -1.663491 -0.193942 3.800789 -34.536428 -27.873192 -0.058300 -1.557600 4.284500 -0.633116 5.955367 -1.854114 -6.936539 3.355102 8.339275 -1.741699 22.590863 10.856950 -4.074300 11.820900 10.826100 -76.349410 -4.502053 39.400312 7.298761 -20.828723 -1.789495 -0.491601 -0.398463 -0.808151 -7.125000 0.000000 0.000000 71.942902 -10.531510 18.460859 -18.350625 32.071428 -6.647640 1.211335 0.383310 -11.188499 7.125000 0.000000 0.000000 
-26.327337 17.517621 -0.177013 -158.604192 71.322457 -143.026136 -3.955517 -11.579974 -20.216966 0.566644 8.816092 22.293469 -2.872729 15.848883 -14.029579 0.136900 -2.385200 -6.571300 28.128857 -5.207960 -3.080679 0.036285 -1.655847 -0.198982 3.699970 -34.306086 -28.249624 -0.081900 -1.845500 5.078900 -0.673445 6.004787 -1.856979 -6.938653 3.375573 8.402710 -1.814896 22.488515 10.849151 -4.147200 11.782300 10.824400 -76.266538 -4.514303 39.354187 7.212555 -20.690241 -1.753804 -0.429277 -0.131050 -0.633460 -7.125000 0.000000 0.000000 72.093395 -10.506039 18.296282 -18.376486 32.092689 -6.657065 1.204550 0.393072 -11.206974 7.125000 0.000000 0.000000 
-26.321763 17.520040 -0.168914 -158.922807 71.571730 -143.295099 -4.113591 -11.582596 -20.075758 0.528826 8.743838 22.062911 -2.927490 16.102797 -14.223129 0.137600 -2.390600 -6.586400 27.966011 -5.064227 -3.041403 0.030702 -1.649342 -0.198859 3.677060 -34.259420 -28.346474 -0.086600 -1.898100 5.224200 -0.720462 6.129433 -1.862352 -6.942312 3.429393 8.362026 -1.803973 22.388296 10.831920 -4.173900 11.744900 10.806800 -76.051913 -4.421325 39.745318 7.298003 -20.818437 -1.774735 -0.473779 -0.262545 -0.894318 -7.125000 0.000000 0.000000 72.317491 -10.553402 18.083874 -18.535658 32.244283 -6.738573 1.207230 0.391246 -11.239413 7.125000 0.000000 0.000000 
-26.302621 17.513414 -0.157134 -159.727750 71.632943 -144.373432 -4.295596 -11.946337 -19.491821 0.491028 8.691171 21.873223 -2.934639 16.197564 -14.485994 0.150500 -2.499800 -6.889200 27.761720 -5.387967 -2.574030 0.035369 -1.628605 -0.199799 3.606929 -34.056516 -28.535526 -0.095600 -1.993600 5.487900 -0.684148 5.999192 -1.808766 -6.649794 3.364086 8.402106 -1.856631 22.411009 10.825174 -4.193000 11.749300 10.810900 -76.062323 -4.307994 39.950422 7.435513 -21.032327 -1.818632 -0.488591 -0.317524 -1.176275 -7.125000 0.000000 0.000000 72.233651 -10.540033 18.151741 -18.688099 32.389065 -6.819737 1.206329 0.406283 -11.374976 7.125000 0.000000 0.000000 
-26.293575 17.508681 -0.152506 -160.384396 71.908951 -145.200318 -4.598773 -11.934530 -19.095445 0.454705 8.634095 21.672473 -2.939790 16.244621 -14.554876 0.138400 -2.397700 -6.606200 27.468191 -5.451825 -2.206879 0.033308 -1.608356 -0.199541 3.537201 -33.870620 -28.738631 -0.108700 -2.125600 5.853000 -0.469073 5.408696 -1.692217 -5.790526 3.081356 8.682497 -1.908055 23.080234 10.892074 -3.926500 11.945400 10.925700 -76.993500 -4.747150 38.677984 7.403316 -21.020755 -1.833863 -0.487399 -0.310974 -0.947135 -7.125000 0.000000 0.000000 70.999199 -9.860565 19.337721 -18.674810 32.361861 -6.805042 1.191151 0.470476 -11.679438 7.125000 0.000000 0.000000 
-26.308195 17.519409 -0.171228 -160.644739 72.511750 -144.779112 -4.842457 -11.846555 -19.625850 0.408283 8.604830 21.448210 -3.067470 16.802207 -14.760815 0.085200 -1.882300 -5.180500 27.134595 -4.684319 -2.867877 0.008373 -1.613781 -0.197565 3.601430 -34.083232 -28.528599 -0.097900 -2.017500 5.554100 -0.114382 4.376638 -1.551781 -4.613321 2.592148 9.485775 -1.854401 24.572527 10.999611 -3.169100 12.343300 11.144000 -78.826584 -6.153940 35.970445 7.213171 -20.756663 -1.821414 -0.487942 -0.276961 -0.408342 -7.125000 0.000000 0.000000 68.480518 -8.046774 21.812105 -18.478668 32.141833 -6.686774 1.169507 0.586041 -12.146173 7.125000 0.000000 0.000000 
-26.285161 17.519409 -0.158817 -161.392945 72.517666 -145.451875 -4.965137 -11.864105 -19.525773 0.381160 8.550716 21.279921 -3.016216 16.615961 -14.787440 0.046600 -1.393300 -3.831800 27.015147 -4.831956 -2.814395 0.004027 -1.604446 -0.200738 3.501226 -33.818082 -28.783717 -0.124100 -2.271100 6.255400 -0.136549 4.401583 -1.574011 -4.478946 2.594006 9.458092 -1.890596 24.428029 10.977818 -3.286600 12.320100 11.088400 -78.598290 -5.926798 36.504185 7.277286 -20.872416 -1.837966 -0.504070 -0.307297 -0.755859 -7.125000 0.000000 0.000000 68.747356 -8.332886 21.546176 -18.537264 32.201459 -6.714990 1.167075 0.576544 -12.137475 7.125000 0.000000 0.000000 
-26.267281 17.518568 -0.146827 -162.185469 72.551695 -146.306829 -5.180109 -11.773752 -19.336840 0.358161 8.498350 21.115248 -3.020477 16.593625 -14.541523 0.053000 -1.485800 -4.086600 26.840280 -5.033296 -2.614565 0.000582 -1.588775 -0.203777 3.375356 -33.481723 -29.115553 -0.167600 -2.637200 7.270100 -0.133501 4.372508 -1.579939 -4.260542 2.569628 9.388104 -1.968795 24.375972 10.918628 -3.388900 12.325500 11.018500 -78.549616 -5.805109 36.476272 7.240920 -20.849426 -1.832277 -0.506228 -0.330521 -0.462390 -7.125000 0.000000 0.000000 68.889986 -8.562261 21.327813 -18.593919 32.252800 -6.741976 1.161213 0.576025 -12.080616 7.125000 0.000000 0.000000 
-26.250768 17.516043 -0.135257 -162.943325 72.592440 -147.171821 -5.388248 -11.635719 -19.124564 0.330683 8.427871 20.912032 -2.999947 16.485113 -14.360739 0.058900 -1.565700 -4.306700 26.658190 -5.239230 -2.370921 -0.001740 -1.571872 -0.206769 3.255676 -33.167128 -29.459795 -0.205900 -2.921600 8.060600 -0.138517 4.362791 -1.579156 -4.094157 2.555801 9.324657 -2.062662 24.316355 10.908093 -3.499700 12.326300 11.012600 -78.534174 -5.753372 36.269351 7.157277 -20.754543 -1.812725 -0.496365 -0.340320 0.026153 -7.125000 0.000000 0.000000 69.064773 -8.779455 21.158809 -18.654825 32.306663 -6.766861 1.157466 0.571135 -12.084775 7.125000 0.000000 0.000000 
-26.241197 17.512152 -0.131050 -163.445460 72.786658 -147.717779 -5.483577 -11.890310 -18.847029 0.295285 8.375728 20.719919 -3.006042 16.580432 -14.678573 0.060000 -1.580900 -4.348900 26.387874 -4.935051 -2.854432 -0.001321 -2.018223 1.028544 2.988992 -32.552095 -30.163478 -0.223900 -3.046100 8.407000 -0.195145 4.493318 -1.597353 -4.159897 2.616638 9.192691 -2.116393 24.191404 10.923850 -3.617800 12.309600 11.019100 -78.358728 -5.503966 36.544006 7.185945 -20.800027 -1.814769 -0.486855 -0.323341 -0.226106 -7.125000 0.000000 0.000000 69.368537 -8.983421 20.958177 -18.640930 32.288166 -6.750319 1.158919 0.552387 -12.048740 7.125000 0.000000 0.000000 
-26.232468 17.508997 -0.127159 -164.013597 72.996937 -148.306311 -5.679998 -11.876822 -18.663120 0.264531 8.331741 20.552431 -3.006958 16.637749 -14.912879 0.057700 -1.549400 -4.261800 26.057667 -4.476372 -3.683041 -0.018107 -2.693896 2.880873 2.583027 -31.617984 -31.269239 -0.254000 -3.242500 8.954800 -0.236259 4.556256 -1.595334 -4.195530 2.647318 9.138597 -2.085657 24.188603 10.946984 -3.615600 12.315000 11.054500 -78.193539 -5.296896 37.055473 7.328190 -20.991216 -1.846321 -0.479841 -0.290536 -0.648764 -7.125000 0.000000 0.000000 69.524152 -8.930166 20.897351 -18.548725 32.185347 -6.695032 1.161976 0.537998 -11.961875 7.125000 0.000000 0.000000 
-26.223633 17.509522 -0.124319 -164.780295 73.244883 -149.038040 -6.050664 -11.481362 -18.633710 0.237098 8.286494 20.384190 -3.021247 16.696417 -14.885124 0.054100 -1.501200 -4.129100 25.709391 -4.151788 -4.210007 -0.043728 -3.118203 4.063627 2.299914 -30.967703 -32.055367 -0.291500 -3.472100 9.596100 -0.151182 4.261875 -1.545043 -3.802541 2.501561 9.296211 -2.036415 24.618728 10.978442 -3.391000 12.436000 11.118100 -78.581694 -5.532543 36.899902 7.411503 -21.104329 -1.874140 -0.483255 -0.270002 -0.834106 -7.125000 0.000000 0.000000 68.919908 -8.478968 21.567829 -18.478927 32.106107 -6.656820 1.161048 0.564048 -11.986060 7.125000 0.000000 0.000000 
-26.212274 17.513309 -0.122005 -165.724322 73.523541 -149.915534 -6.456526 -11.132899 -18.639721 0.211452 8.247420 20.222620 -3.063764 16.837942 -14.693606 0.067900 -1.681500 -4.626200 25.325403 -3.854435 -4.644866 -0.071399 -3.447641 4.996626 2.116316 -30.540061 -32.508487 -0.309200 -3.574900 9.883600 -0.204003 4.400340 -1.551682 -3.743746 2.562265 9.267536 -1.981911 24.546588 11.064742 -3.395300 12.417800 11.164100 -78.444781 -5.484732 37.587830 7.493273 -21.215970 -1.889085 -0.494112 -0.285629 -1.288369 -7.125000 0.000000 0.000000 69.118114 -8.695834 21.342810 -18.551151 32.180104 -6.701178 1.167640 0.551936 -11.857675 7.125000 0.000000 0.000000 
